<?xml version="1.0" encoding="UTF-8" standalone="no" ?>
<!DOCTYPE svg PUBLIC "-//W3C//DTD SVG 1.1//EN" "http://www.w3.org/Graphics/SVG/1.1/DTD/svg11.dtd">
<svg xmlns="http://www.w3.org/2000/svg" xmlns:xlink="http://www.w3.org/1999/xlink" version="1.1" width="1080" height="1080" viewBox="0 0 1080 1080" xml:space="preserve">
<desc>Created with Fabric.js 5.2.4</desc>
<defs>
</defs>
<g transform="matrix(1 0 0 1 540 540)" id="e2bb7c50-dfa7-4833-a416-a0773b1ccd08"  >
<rect style="stroke: none; stroke-width: 1; stroke-dasharray: none; stroke-linecap: butt; stroke-dashoffset: 0; stroke-linejoin: miter; stroke-miterlimit: 4; fill: rgb(255,255,255); fill-rule: nonzero; opacity: 1; visibility: hidden;" vector-effect="non-scaling-stroke"  x="-540" y="-540" rx="0" ry="0" width="1080" height="1080" />
</g>
<g transform="matrix(1 0 0 1 540 540)" id="d55e891c-ce4e-4837-8875-2f4292496813"  >
</g>
<g transform="matrix(0.99 0 0 0.99 540 381.73)"  >
<g style="" vector-effect="non-scaling-stroke"   >
		<g transform="matrix(1 0 0 1 0 0)"  >
<rect style="stroke: none; stroke-width: 1; stroke-dasharray: none; stroke-linecap: butt; stroke-dashoffset: 0; stroke-linejoin: miter; stroke-miterlimit: 4; fill: rgb(255,255,255); fill-rule: nonzero; opacity: 1;" vector-effect="non-scaling-stroke"  x="-90" y="-90" rx="32" ry="32" width="180" height="180" />
</g>
		<g transform="matrix(1 0 0 1 0 0)"  >
<rect style="stroke: rgb(217,217,217); stroke-width: 1; stroke-dasharray: none; stroke-linecap: butt; stroke-dashoffset: 0; stroke-linejoin: miter; stroke-miterlimit: 4; fill: none; fill-rule: nonzero; opacity: 1;" vector-effect="non-scaling-stroke"  x="-89.5" y="-89.5" rx="31.5" ry="31.5" width="179" height="179" />
</g>
		<g transform="matrix(1 0 0 1 0.38 0.3)"  >
<path style="stroke: none; stroke-width: 1; stroke-dasharray: none; stroke-linecap: butt; stroke-dashoffset: 0; stroke-linejoin: miter; stroke-miterlimit: 4; fill: rgb(205,103,153); fill-rule: nonzero; opacity: 1;" vector-effect="non-scaling-stroke"  transform=" translate(-131.1, -126.3)" d="M 167.212 131.911 C 163.724 131.929 160.692 132.77 158.153 134.012 C 157.221 132.167 156.29 130.523 156.125 129.317 C 155.943 127.911 155.723 127.053 155.943 125.372 C 156.162 123.692 157.148 121.299 157.13 121.116 C 157.112 120.934 156.911 120.075 154.901 120.057 C 152.892 120.039 151.157 120.441 150.956 120.97 C 150.755 121.5 150.372 122.705 150.116 123.947 C 149.769 125.774 146.098 132.295 143.997 135.71 C 143.321 134.377 142.737 133.208 142.609 132.276 C 142.426 130.87 142.207 130.012 142.426 128.331 C 142.645 126.651 143.632 124.258 143.613 124.075 C 143.595 123.893 143.394 123.034 141.385 123.016 C 139.376 122.998 137.641 123.4 137.44 123.929 C 137.239 124.459 137.02 125.701 136.6 126.906 C 136.179 128.112 131.303 138.998 130.024 141.811 C 129.366 143.254 128.8 144.405 128.398 145.19 C 128.398 145.19 128.38 145.245 128.325 145.336 C 127.978 146.012 127.777 146.377 127.777 146.377 C 127.777 146.377 127.777 146.377 127.777 146.396 C 127.503 146.889 127.211 147.345 127.065 147.345 C 126.955 147.345 126.754 146.03 127.102 144.24 C 127.832 140.459 129.567 134.578 129.549 134.377 C 129.549 134.267 129.878 133.245 128.417 132.715 C 126.992 132.185 126.481 133.062 126.353 133.062 C 126.225 133.062 126.133 133.372 126.133 133.372 C 126.133 133.372 127.723 126.76 123.101 126.76 C 120.215 126.76 116.234 129.92 114.261 132.77 C 113.019 133.445 110.37 134.888 107.539 136.441 C 106.462 137.044 105.347 137.647 104.306 138.213 C 104.233 138.14 104.16 138.048 104.087 137.975 C 98.4979 132.003 88.1597 127.783 88.5981 119.765 C 88.7625 116.842 89.7671 109.171 108.453 99.8554 C 123.832 92.2753 136.07 94.3758 138.189 99.0335 C 141.221 105.682 131.631 118.029 115.74 119.819 C 109.676 120.495 106.498 118.157 105.694 117.281 C 104.854 116.367 104.726 116.313 104.416 116.495 C 103.904 116.769 104.233 117.591 104.416 118.066 C 104.891 119.308 106.845 121.5 110.151 122.578 C 113.074 123.527 120.179 124.057 128.782 120.733 C 138.408 117.007 145.933 106.65 143.723 97.9741 C 141.513 89.1702 126.901 86.266 113.074 91.1794 C 104.854 94.1018 95.9408 98.7047 89.5296 104.696 C 81.913 111.819 80.7074 118.011 81.2006 120.605 C 82.9724 129.811 95.6668 135.802 100.745 140.24 C 100.489 140.386 100.251 140.514 100.05 140.624 C 97.5116 141.884 87.8309 146.944 85.4199 152.295 C 82.6801 158.359 85.8583 162.707 87.9588 163.291 C 94.4795 165.099 101.183 161.848 104.781 156.478 C 108.38 151.108 107.941 144.131 106.279 140.934 C 106.261 140.898 106.242 140.861 106.206 140.825 C 106.863 140.441 107.539 140.039 108.197 139.656 C 109.494 138.889 110.772 138.176 111.868 137.592 C 111.247 139.29 110.791 141.318 110.571 144.24 C 110.297 147.674 111.704 152.131 113.549 153.884 C 114.371 154.652 115.339 154.67 115.96 154.67 C 118.115 154.67 119.083 152.88 120.161 150.761 C 121.476 148.167 122.663 145.154 122.663 145.154 C 122.663 145.154 121.184 153.3 125.202 153.3 C 126.663 153.3 128.143 151.4 128.8 150.432 C 128.8 150.451 128.8 150.451 128.8 150.451 C 128.8 150.451 128.837 150.396 128.91 150.268 C 129.056 150.03 129.147 149.884 129.147 149.884 C 129.147 149.884 129.147 149.866 129.147 149.848 C 129.732 148.825 131.047 146.505 133.001 142.651 C 135.522 137.683 137.951 131.473 137.951 131.473 C 137.951 131.473 138.17 132.989 138.919 135.509 C 139.358 136.989 140.271 138.615 141.001 140.185 C 140.417 141.007 140.052 141.464 140.052 141.464 C 140.052 141.464 140.052 141.464 140.07 141.482 C 139.595 142.103 139.084 142.779 138.517 143.437 C 136.526 145.811 134.152 148.533 133.823 149.318 C 133.44 150.25 133.531 150.925 134.262 151.473 C 134.791 151.875 135.741 151.93 136.709 151.875 C 138.499 151.747 139.759 151.309 140.38 151.035 C 141.349 150.688 142.481 150.158 143.54 149.373 C 145.495 147.93 146.682 145.866 146.572 143.144 C 146.518 141.647 146.024 140.149 145.422 138.742 C 145.604 138.487 145.769 138.231 145.951 137.975 C 149.038 133.464 151.431 128.514 151.431 128.514 C 151.431 128.514 151.65 130.03 152.399 132.55 C 152.764 133.829 153.513 135.217 154.171 136.569 C 151.267 138.925 149.477 141.665 148.837 143.455 C 147.687 146.779 148.582 148.277 150.28 148.624 C 151.047 148.788 152.143 148.423 152.947 148.076 C 153.97 147.747 155.175 147.181 156.326 146.341 C 158.281 144.898 160.162 142.889 160.052 140.167 C 159.997 138.925 159.669 137.701 159.212 136.514 C 161.678 135.491 164.856 134.925 168.911 135.4 C 177.605 136.423 179.322 141.848 178.993 144.131 C 178.665 146.414 176.838 147.656 176.235 148.04 C 175.633 148.423 175.432 148.551 175.487 148.825 C 175.56 149.227 175.852 149.208 176.363 149.135 C 177.076 149.008 180.93 147.291 181.094 143.09 C 181.368 137.72 176.254 131.856 167.212 131.911 Z M 100.142 154.524 C 97.2559 157.665 93.2375 158.853 91.5023 157.848 C 89.6392 156.77 90.3698 152.131 93.9133 148.807 C 96.0686 146.779 98.845 144.898 100.69 143.747 C 101.11 143.491 101.731 143.126 102.48 142.669 C 102.608 142.596 102.681 142.56 102.681 142.56 C 102.827 142.469 102.973 142.377 103.119 142.286 C 104.416 147.035 103.174 151.218 100.142 154.524 Z M 121.147 140.24 C 120.142 142.688 118.042 148.953 116.763 148.606 C 115.667 148.313 114.992 143.564 116.544 138.87 C 117.33 136.514 118.992 133.701 119.96 132.605 C 121.531 130.852 123.266 130.267 123.686 130.98 C 124.216 131.911 121.768 138.706 121.147 140.24 Z M 138.481 148.533 C 138.061 148.752 137.659 148.898 137.476 148.788 C 137.348 148.715 137.659 148.423 137.659 148.423 C 137.659 148.423 139.833 146.085 140.691 145.026 C 141.184 144.405 141.769 143.674 142.39 142.852 C 142.39 142.925 142.39 143.017 142.39 143.09 C 142.39 145.884 139.686 147.766 138.481 148.533 Z M 151.851 145.482 C 151.541 145.263 151.595 144.533 152.637 142.249 C 153.038 141.354 153.988 139.857 155.614 138.414 C 155.796 138.998 155.924 139.564 155.906 140.094 C 155.888 143.619 153.367 144.934 151.851 145.482 Z" stroke-linecap="round" />
</g>
</g>
</g>
</svg>