<svg width="261" height="260" fill="none" xmlns="http://www.w3.org/2000/svg"><g filter="url(#sass__a)"><rect x="40.724" y="36" width="180" height="180" rx="32" fill="#fff"/><rect x="41.224" y="36.5" width="179" height="179" rx="31.5" stroke="#D9D9D9"/></g><path d="M167.212 131.911c-3.488.018-6.52.859-9.059 2.101-.932-1.845-1.863-3.489-2.028-4.695-.182-1.406-.402-2.264-.182-3.945.219-1.68 1.205-4.073 1.187-4.256-.018-.182-.219-1.041-2.229-1.059-2.009-.018-3.744.384-3.945.913-.201.53-.584 1.735-.84 2.977-.347 1.827-4.018 8.348-6.119 11.763-.676-1.333-1.26-2.502-1.388-3.434-.183-1.406-.402-2.264-.183-3.945.219-1.68 1.206-4.073 1.187-4.256-.018-.182-.219-1.041-2.228-1.059-2.009-.018-3.744.384-3.945.913-.201.53-.42 1.772-.84 2.977-.421 1.206-5.297 12.092-6.576 14.905a84.097 84.097 0 0 1-1.626 3.379s-.018.055-.073.146a45.049 45.049 0 0 1-.548 1.041v.019c-.274.493-.566.949-.712.949-.11 0-.311-1.315.037-3.105.73-3.781 2.465-9.662 2.447-9.863 0-.11.329-1.132-1.132-1.662-1.425-.53-1.936.347-2.064.347-.128 0-.22.31-.22.31s1.59-6.612-3.032-6.612c-2.886 0-6.867 3.16-8.84 6.01a2111.18 2111.18 0 0 0-6.722 3.671c-1.077.603-2.192 1.206-3.233 1.772-.073-.073-.146-.165-.219-.238-5.59-5.972-15.927-10.192-15.489-18.21.165-2.923 1.17-10.594 19.855-19.91 15.379-7.58 27.617-5.48 29.736-.822 3.032 6.649-6.558 18.996-22.449 20.786-6.064.676-9.242-1.662-10.046-2.538-.84-.914-.968-.968-1.278-.786-.512.274-.183 1.096 0 1.571.475 1.242 2.429 3.434 5.735 4.512 2.923.949 10.028 1.479 18.631-1.845 9.626-3.726 17.151-14.083 14.941-22.759-2.21-8.804-16.822-11.708-30.649-6.795-8.22 2.923-17.133 7.526-23.544 13.517-7.617 7.123-8.823 13.315-8.33 15.909 1.772 9.206 14.467 15.197 19.545 19.635-.256.146-.494.274-.695.384-2.538 1.26-12.22 6.32-14.63 11.671-2.74 6.064.438 10.412 2.539 10.996 6.52 1.808 13.224-1.443 16.822-6.813 3.599-5.37 3.16-12.347 1.498-15.544a.385.385 0 0 0-.073-.109c.657-.384 1.333-.786 1.991-1.169a96.704 96.704 0 0 1 3.671-2.064c-.621 1.698-1.077 3.726-1.297 6.648-.274 3.434 1.133 7.891 2.978 9.644.822.768 1.79.786 2.411.786 2.155 0 3.123-1.79 4.201-3.909 1.315-2.594 2.502-5.607 2.502-5.607s-1.479 8.146 2.539 8.146c1.461 0 2.941-1.9 3.598-2.868v.019s.037-.055.11-.183l.237-.384v-.036c.585-1.023 1.9-3.343 3.854-7.197 2.521-4.968 4.95-11.178 4.95-11.178s.219 1.516.968 4.036c.439 1.48 1.352 3.106 2.082 4.676-.584.822-.949 1.279-.949 1.279l.018.018c-.475.621-.986 1.297-1.553 1.955-1.991 2.374-4.365 5.096-4.694 5.881-.383.932-.292 1.607.439 2.155.529.402 1.479.457 2.447.402 1.79-.128 3.05-.566 3.671-.84.969-.347 2.101-.877 3.16-1.662 1.955-1.443 3.142-3.507 3.032-6.229-.054-1.497-.548-2.995-1.15-4.402.182-.255.347-.511.529-.767 3.087-4.511 5.48-9.461 5.48-9.461s.219 1.516.968 4.036c.365 1.279 1.114 2.667 1.772 4.019-2.904 2.356-4.694 5.096-5.334 6.886-1.15 3.324-.255 4.822 1.443 5.169.767.164 1.863-.201 2.667-.548a12.16 12.16 0 0 0 3.379-1.735c1.955-1.443 3.836-3.452 3.726-6.174-.055-1.242-.383-2.466-.84-3.653 2.466-1.023 5.644-1.589 9.699-1.114 8.694 1.023 10.411 6.448 10.082 8.731-.328 2.283-2.155 3.525-2.758 3.909-.602.383-.803.511-.748.785.073.402.365.383.876.31.713-.127 4.567-1.844 4.731-6.045.274-5.37-4.84-11.234-13.882-11.179Zm-67.07 22.613c-2.886 3.141-6.904 4.329-8.64 3.324-1.863-1.078-1.132-5.717 2.411-9.041 2.156-2.028 4.932-3.909 6.777-5.06.42-.256 1.041-.621 1.79-1.078.128-.073.201-.109.201-.109l.438-.274c1.297 4.749.055 8.932-2.977 12.238Zm21.005-14.284c-1.005 2.448-3.105 8.713-4.384 8.366-1.096-.293-1.771-5.042-.219-9.736.786-2.356 2.448-5.169 3.416-6.265 1.571-1.753 3.306-2.338 3.726-1.625.53.931-1.918 7.726-2.539 9.26Zm17.334 8.293c-.42.219-.822.365-1.005.255-.128-.073.183-.365.183-.365s2.174-2.338 3.032-3.397c.493-.621 1.078-1.352 1.699-2.174v.238c0 2.794-2.704 4.676-3.909 5.443Zm13.37-3.051c-.31-.219-.256-.949.786-3.233.401-.895 1.351-2.392 2.977-3.835.182.584.31 1.15.292 1.68-.018 3.525-2.539 4.84-4.055 5.388Z" fill="#CD6799"/><defs><filter id="sass__a" x=".724" y="0" width="260" height="260" filterUnits="userSpaceOnUse" color-interpolation-filters="sRGB"><feFlood flood-opacity="0" result="BackgroundImageFix"/><feColorMatrix in="SourceAlpha" values="0 0 0 0 0 0 0 0 0 0 0 0 0 0 0 0 0 0 127 0" result="hardAlpha"/><feOffset dy="4"/><feGaussianBlur stdDeviation="20"/><feComposite in2="hardAlpha" operator="out"/><feColorMatrix values="0 0 0 0 0.0367917 0 0 0 0 0.0348958 0 0 0 0 0.0484375 0 0 0 0.1 0"/><feBlend in2="BackgroundImageFix" result="effect1_dropShadow_20_1668"/><feBlend in="SourceGraphic" in2="effect1_dropShadow_20_1668" result="shape"/></filter></defs></svg>